# xmcd CD database file
#
# Track frame offsets:
#	150
#	8128
#	23211
#	37376
#	49661
#	65960
#	74778
#	90803
#	102288
#	115123
#	125411
#	139221
#	151464
#	167257
#	178709
#	193565
#
# Disc length: 2741 seconds
#
# Revision: 0
# Processed by: cddbd v1.5.1PL2 Copyright (c) Steve Scherf et al.
# Submitted via: CDex 1.51
#
DISCID=de0ab310
DTITLE=Jim Stringer and the AM Band - Swang!
DYEAR=1999
DGENRE=Country
TTITLE0=Onward, Charlie Christian's Soldiers
TTITLE1=Texas and Pacific
TTITLE2=Bye Bye, Bayou
TTITLE3=My Baby Left Me
TTITLE4=Long Black Limousine
TTITLE5=Thrity Days
TTITLE6=Ninety Miles per Hour (Down a Dead End Street)
TTITLE7=Special Delivery Stomp
TTITLE8=Earthquake
TTITLE9=Jack, You're Dead
TTITLE10=We Ran Out of Love, Baby Blue
TTITLE11=That's All I Need
TTITLE12=Sick, Sober and Sorry
TTITLE13=36-22-36
TTITLE14=No Love Have I
TTITLE15=I Wanna Be In Your Dreams
EXTD=YEAR: 1999
EXTT0=
EXTT1=
EXTT2=
EXTT3=
EXTT4=
EXTT5=
EXTT6=
EXTT7=
EXTT8=
EXTT9=
EXTT10=
EXTT11=
EXTT12=
EXTT13=
EXTT14=
EXTT15=
PLAYORDER=
